<svg width="685" height="328" viewBox="0 0 685 328" fill="none" xmlns="http://www.w3.org/2000/svg">
<path d="M155.49 163.881C120.704 163.881 101.201 163.881 66.4152 163.881M155.49 163.881C185.349 219.886 183.143 254.699 155.49 319.763H8V8H155.49C185.364 73.0323 185.088 107.319 155.49 163.881Z" stroke="white" stroke-width="15"/>
<path d="M208.429 191.313C208.226 247.039 205.88 279.532 217.316 315.889H279.099V191.313" stroke="white" stroke-width="15"/>
<path d="M307.499 322.344V197.768H340.734H367.548L378.501 214.422" stroke="white" stroke-width="15"/>
<path d="M478.548 200.564H415.827C404.785 217.524 404.786 236.334 415.828 254.218H478.548M478.548 200.564V254.218M478.548 200.564V191.313M415.827 298.005L423.336 315.889H478.548V254.218" stroke="white" stroke-width="15"/>
<path d="M507.596 248.348H578.598L578.598 220.401C565.431 193.6 528.456 187.025 507.596 220.401V248.348ZM507.596 248.348C507.596 287.941 518.608 315.889 544.691 315.889C570.773 315.889 578.598 295.261 578.598 281.287" stroke="white" stroke-width="15"/>
<path d="M606.998 322.344V197.768H640.233H667.048L678 214.422" stroke="white" stroke-width="15"/>
</svg>
